<?xml version="1.0" encoding="utf-8"?>
<!-- Generator: Adobe Illustrator 19.0.0, SVG Export Plug-In . SVG Version: 6.00 Build 0)  -->
<svg version="1.1" id="Layer_1" xmlns="http://www.w3.org/2000/svg" xmlns:xlink="http://www.w3.org/1999/xlink" x="0px" y="0px"
	 viewBox="-329 156 300 250" style="enable-background:new -329 156 300 250;" xml:space="preserve">
<style type="text/css">
	.st0{fill:#4A5D5E;}
	.st1{fill:#938774;}
	.st2{fill:#929E7B;}
</style>
<path class="st0" d="M-53.1,304.5V182.3c0-2.5-2.3-4.7-4.8-4.7h-242c-2.6,0-4.8,2.2-4.8,4.7v122.3c0,2.5,2.3,4.7,4.8,4.7h241.9
	C-55.4,309.3-53.1,307-53.1,304.5z M-33.9,182.3v159.9c0,12.9-10.9,23.5-24.2,23.5h-82.3c0,12.5,9.7,23.1,9.7,28.2s-4.4,9.4-9.7,9.4
	h-77.3c-5.3,0-9.7-4.3-9.7-9.4c0-5.4,9.7-15.4,9.7-28.2h-82.3c-13.3,0-24.2-10.6-24.2-23.5V182.3c0-12.9,10.9-23.5,24.2-23.5h241.9
	C-44.8,158.8-33.9,169.4-33.9,182.3z"/>
<g>
	<path d="M-924.7,106.2l28.5,35.1l95.5-116.7L-896.1-92l-28.5,35.1l66.6,81.9L-924.7,106.2z"/>
	<path d="M-1161-57.3l-28.5-35.1L-1285,24.3l95.5,116.7l28.5-35.1l-66.6-81.9L-1161-57.3z"/>
	<path d="M-1085.6-107.8l20.9,7l-57.4,257.2l-20.9-7C-1142.7,149.4-1085.6-107.8-1085.6-107.8z"/>
</g>
<g>
	<path class="st1" d="M-258.6,259l-17-14.3l17-14.3l3.9,4l-12.5,10.2l12.5,10.4L-258.6,259z"/>
	<path class="st1" d="M-242,263.9h-6l17.6-40.9h6L-242,263.9z"/>
	<path class="st2" d="M-202.7,258.5v-16.6c0-2.8-1-4.2-3.1-4.2c-1,0-2,0.4-3,1.3c-0.9,0.8-1.9,2-3,3.4v16.2h-6.1v-35.5h6.1v8.8
		l-0.3,4.6c0.5-0.6,1-1.2,1.6-1.7c0.5-0.5,1.1-0.9,1.7-1.2s1.3-0.6,2-0.8c0.7-0.2,1.5-0.3,2.4-0.3c1.3,0,2.4,0.2,3.4,0.6
		c1,0.4,1.8,1,2.4,1.8c0.7,0.8,1.1,1.7,1.5,2.8c0.3,1.1,0.5,2.3,0.5,3.7v17.2H-202.7z"/>
	<path class="st2" d="M-168.6,258.2c-1.1,0.3-2.2,0.5-3.3,0.6c-1.1,0.2-2.2,0.2-3.2,0.2c-1.7,0-3.1-0.2-4.3-0.5
		c-1.2-0.4-2.2-0.9-3-1.6c-0.8-0.7-1.4-1.6-1.8-2.8c-0.4-1.1-0.6-2.4-0.6-4v-12.5h-6.9v-4.8h6.9v-6.5l6.3-1.6v8.2h9.9v4.8h-9.9v12
		c0,1.5,0.3,2.6,1,3.3c0.7,0.7,1.8,1.1,3.4,1.1c1,0,2-0.1,2.9-0.3c1-0.2,1.8-0.4,2.6-0.6V258.2z"/>
	<path class="st2" d="M-143.3,258.5v-17.4c0-0.6,0-1.2-0.1-1.7c0-0.5-0.1-0.9-0.2-1.2c-0.1-0.3-0.2-0.6-0.4-0.7
		c-0.2-0.2-0.5-0.2-0.8-0.2c-0.5,0-1,0.4-1.5,1.1c-0.5,0.7-1.1,1.9-1.7,3.6v16.6h-5.3v-17.4c0-0.6,0-1.2-0.1-1.7
		c0-0.5-0.1-0.9-0.2-1.2c-0.1-0.3-0.3-0.6-0.5-0.7c-0.2-0.2-0.5-0.2-0.8-0.2c-0.4,0-0.9,0.4-1.5,1.1c-0.5,0.7-1.1,1.9-1.8,3.6v16.6
		h-5.3v-25.6h4.6l0.1,3.7c0.4-0.8,0.7-1.4,1.1-1.9c0.4-0.5,0.8-1,1.2-1.3c0.4-0.3,0.9-0.6,1.3-0.7s1-0.2,1.6-0.2
		c1.4,0,2.5,0.4,3.3,1.1c0.7,0.7,1.2,1.8,1.3,3.1c0.4-0.8,0.8-1.4,1.2-1.9c0.4-0.5,0.8-1,1.2-1.3c0.4-0.3,0.9-0.6,1.4-0.7
		c0.5-0.2,1-0.2,1.6-0.2c1.9,0,3.2,0.6,4.1,1.9c0.9,1.3,1.3,3.2,1.3,5.8v18.3H-143.3z"/>
	<path class="st2" d="M-124.8,227.7h-7.2v-4.8h13.5v30.8h7.4v4.8h-21.8v-4.8h8.1V227.7z"/>
	<path class="st1" d="M-99.4,230.5l17,14.3l-17,14.3l-3.9-4l12.4-10.3l-12.4-10.3L-99.4,230.5z"/>
</g>
</svg>
