<?xml version="1.0" encoding="utf-8"?>
<!-- Generator: Adobe Illustrator 19.0.0, SVG Export Plug-In . SVG Version: 6.00 Build 0)  -->
<svg version="1.1" id="_x28__1_" xmlns="http://www.w3.org/2000/svg" xmlns:xlink="http://www.w3.org/1999/xlink" x="0px" y="0px"
	 viewBox="-329 156 300 250" style="enable-background:new -329 156 300 250;" xml:space="preserve">
<style type="text/css">
	.st0{fill:#5E554D;}
</style>
<g id="_x28_">
	<g>
		<path class="st0" d="M-162.4,298.4l30.7-37.7l-23.3-28.9l-32,39.3l-26.8-32.3c-7.4-9.7-9.4-13.6-7.4-24.9
			c2.3-12.4,2.3-27.6-10.3-41.2c-1.9-1.9-6.8-5.4-6.8-6.2c-19.7-14-40.7-1.2-40.7-1.2l-1.6,3.1c0,0,18.1,14.4,20.4,16
			c2.6,1.9,10.3,12.4,1,29.2c-9,16.7-19.1,11.3-22,8.6c-2.3-1.6-20.4-15.6-20.4-15.6l-1.6,3.1c0,0-1.3,29.2,18.7,44.7
			c9.4,7.4,19.4,7.4,26.5,4.3c7.1-2.7,12.3,0.4,21,10.5l26.8,31.1l-55.6,62.2c-4.8,5.8-4.8,15.6,0,21l12.6,15.6
			c4.8,5.8,12.9,5.8,17.4,0l48.5-70.4l52,66.1c8.1,10.1,21,10.1,29.4,0.4c8.1-10.1,8.4-25.7,0.3-35.4L-162.4,298.4z M-113,386.7
			c-4.2,5.4-11,4.7-15.5-0.4c-3.9-4.7-3.9-13.2,0-18.3c4.5-5.1,11.3-5.1,15.5,0S-108.8,382-113,386.7z M-57.4,245.8l-3.6-4.7
			c-2.6-3.5-7.8-4.7-11-1.2c-2.9,0-6.8-1.6-9.7-5.1c-6.1-8.2-1.9-22.6-6.1-27.6c-1.9-2.3-9.7-11.7-17.1-20.6
			c-8.1-9.6-30.4-40.7-89.5-22.5l0.3,8.9c0,0,29.4-0.4,50.4,24.5c0,0,7.8,10.1,0.3,19.1c-1.9,2.7-2.9,3.9-2.9,3.9l-3.9,4.7
			l23.9,28.4c0,0,5.2-6.6,6.8-8.2c3.9-5.1,13.9-4.7,21.6,5.1c5.5,6.2,6.5,13.2,3.6,15.6c-1.6,2.7-0.3,8.6,2.6,11.7l3.9,5.1
			c3.9,4.3,9.4,4.3,12.9,0l17.4-21.4C-53.8,256.7-53.8,250.1-57.4,245.8z"/>
	</g>
</g>
</svg>
