<?xml version="1.0" encoding="utf-8"?>
<!-- Generator: Adobe Illustrator 19.0.0, SVG Export Plug-In . SVG Version: 6.00 Build 0)  -->
<svg version="1.1" id="Layer_1" xmlns="http://www.w3.org/2000/svg" xmlns:xlink="http://www.w3.org/1999/xlink" x="0px" y="0px"
	 viewBox="-329 156 300 250" style="enable-background:new -329 156 300 250;" xml:space="preserve">
<style type="text/css">
	.st0{fill:#F7F9FF;}
	.st1{fill:#473845;}
	.st2{fill:#261F26;}
</style>
<g>
	<g id="XMLID_1_">
		<g>
			<path class="st0" d="M-187.8,370.1c6,0,10.9,5,10.9,11c0,6.1-4.9,11-10.9,11s-10.9-5-10.9-11C-199.1,375-193.9,370.1-187.8,370.1
				z"/>
			<path class="st0" d="M-110.7,186.3v166.9c0,3-2.5,5.5-5.5,5.5h-143.4c-3,0-5.5-2.5-5.5-5.5V186.3c0-3,2.7-5.5,5.5-5.5h143.4
				C-113.1,180.8-110.7,183.3-110.7,186.3z"/>
			<path class="st1" d="M-88.5,186.3v189.3c0,15.2-12.3,27.9-27.6,27.9h-143.4c-15.3,0-27.6-12.4-27.6-27.9V186.3
				c0-15.2,12.3-27.9,27.6-27.9H-116C-101.1,158.6-88.5,171.1-88.5,186.3z M-110.7,353.3V186.3c0-3-2.5-5.5-5.5-5.5h-143.4
				c-3,0-5.5,2.5-5.5,5.5v166.9c0,3,2.7,5.5,5.5,5.5h143.4C-113.1,358.8-110.7,356.3-110.7,353.3z M-176.9,381.1
				c0-6.1-4.9-11-10.9-11s-10.9,5-10.9,11c0,6.1,4.9,11,10.9,11S-176.9,387.3-176.9,381.1z"/>
		</g>
	</g>
	<g>
		<rect id="_x3C_Slice_x3E_" x="-135.5" y="278.3" class="st0" width="59.8" height="117.5"/>
		<path class="st2" d="M-85,269.9h-41.8c-7.8,0-14,7.4-14,16.6v99.9c0,9.1,6.3,16.6,14,16.6H-85c7.8,0,14-7.4,14-16.6v-99.9
			C-71,277.4-77.2,269.9-85,269.9z M-104,282.3h10.5c1,0,1.8,0.8,1.8,2.2c0,1.1-0.8,2.2-1.8,2.2H-104c-1,0-1.8-0.8-1.8-2.2
			C-105.8,283.3-105,282.3-104,282.3z M-116.3,278.3c2,0,3.5,1.9,3.5,4.1c0,2.2-1.5,4.1-3.5,4.1s-3.5-1.9-3.5-4.1
			C-119.5,280.1-118,278.3-116.3,278.3z M-98.7,390.5c0,2.2-1.5,4.1-3.5,4.1h-7c-2,0-3.5-1.9-3.5-4.1v-8.3c0-2.2,1.5-4.1,3.5-4.1h7
			c2,0,3.5,1.9,3.5,4.1L-98.7,390.5L-98.7,390.5z M-78,365.8c0,2.2-1.5,4.1-3.5,4.1H-130c-2,0-3.5-1.9-3.5-4.1V299
			c0-2.2,1.5-4.1,3.5-4.1h48.5c2,0,3.5,1.9,3.5,4.1V365.8z"/>
	</g>
</g>
</svg>
